<svg id="Laag_1" data-name="Laag 1" xmlns="http://www.w3.org/2000/svg" xmlns:xlink="http://www.w3.org/1999/xlink" viewBox="0 0 130.53 152.25"><defs><style>.cls-31{fill:url(#Naamloos_verloop_9);}.cls-32{fill:#fff;}.cls-33{fill:#b84f98;}.cls-34{fill:#9f4794;}.cls-35{fill:#ae4b96;}.cls-36{fill:#a24895;}.cls-37{fill:#bc5199;}.cls-38{fill:#a64995;}.cls-39{fill:#a44995;}.cls-40{fill:#ac4b96;}.cls-41{fill:#b14d97;}.cls-42{fill:#b64e98;}.cls-43{fill:#a74995;}.cls-44{fill:#a94a96;}.cls-45{fill:#c1539a;}.cls-46{fill:#c5559b;}.cls-47{fill:#be5299;}.cls-48{fill:#c2549a;}.cls-49{fill:#a44a96;}.cls-50{fill:#b54e98;}.cls-51{fill:#a24a96;}.cls-52{fill:#ba5299;}.cls-53{fill:#be539a;}.cls-54{fill:#a94b96;}.cls-55{fill:#b45199;}.cls-56{fill:#b04e97;}.cls-57{fill:#ba539a;}.cls-58{fill:#be549a;}.cls-59{fill:#b45299;}.cls-60{fill:#fdf9fc;}.cls-61{fill:#fdfafd;}</style><linearGradient id="Naamloos_verloop_9" x1="226.39" y1="375.17" x2="320.27" y2="303.17" gradientUnits="userSpaceOnUse"><stop offset="0" stop-color="#e35f9f"/><stop offset="1" stop-color="#874292"/></linearGradient></defs><path class="cls-31" d="M274.51,274.06l56.18,32.71v61.59L276.93,399l-55.05-30.56L221.15,306Z" transform="translate(-210.66 -274.06)"/><path class="cls-32" d="M286.23,364.94l-3.36,1.11a6.65,6.65,0,0,1-2.65.46l-5.58.3c-3.1-.08-3.66.21-7-1.17-5.83-2.14-10.82-5.43-14.33-10.67a22.38,22.38,0,0,1-2.57-4.28,48.51,48.51,0,0,1-1.92-6.71,16.69,16.69,0,0,1-.4-5.23c.13-1.38.26-2.75.4-4.13a16.14,16.14,0,0,1,.51-3.63,9.54,9.54,0,0,1,2.11-4.22l1.07-1.88a7.23,7.23,0,0,1,2-3,13.42,13.42,0,0,1,3.45-2.58c1.77-.62,2.78,0,3.71,2.11a5.1,5.1,0,0,1-1.46,4.61,10.17,10.17,0,0,0-1.7,2.37,15.57,15.57,0,0,0-1.85,3.83,21.5,21.5,0,0,0-1.07,4.41c-.51,2.72.07,5.37.54,8a26.85,26.85,0,0,0,1.74,5.48c.18-1,.53-1.88.74-2.82.66-1.78,1.75-3.33,2.54-5a35.69,35.69,0,0,1,2.88-3.82,7.5,7.5,0,0,1,2.94-1.93,2.87,2.87,0,0,1,3.39,1.25c1.14,1.69.71,3.28-.43,4.83,1.68.06,1.77,0,1.72-1.45a6.71,6.71,0,0,1,.75-3.76,6.08,6.08,0,0,1,2.91-2.86,10,10,0,0,1-5.73-2.94,13.84,13.84,0,0,0-2.37-1.8,7.35,7.35,0,0,1-3.33-5.18,3.71,3.71,0,0,1,1.1-3.87l2.35-2.58a5,5,0,0,1,2.17-2.65,18.32,18.32,0,0,1,4.49-2.94c1.65-.14,3.25-.7,4.94-.5.86.1.94-.61,1.22-1.13s.65-1.19,1-1.78a19,19,0,0,1,4.07-3.06c1.88-.64,1.56,1.15,2.15,1.95a66.9,66.9,0,0,0,2.36,6.86,2.13,2.13,0,0,0,.95,1.1,29,29,0,0,1,10.63,12.2,40.89,40.89,0,0,1,2.25,9c0,1.47,0,2.94-.05,4.41-.37,2-.75,4-1.12,6l-1.12,3-2.26,4.07c-.88,1.11-1.76,2.23-2.63,3.35s-.38.82-2.17,2l-3,2.27Z" transform="translate(-210.66 -274.06)"/><path class="cls-33" d="M288.48,360.75a12.31,12.31,0,0,1-4.13,1.85,1.58,1.58,0,0,1-2-.47c-1.16-1.12-2.51-2-3.62-3.19-3.28-3.46-7.08-6.36-10.47-9.7-.45-.45-1.25-.67-1.1-1.55a7.78,7.78,0,0,1,4.82-2.2c1.9,2.11,4.28,3.7,6.35,5.63,1.53,1.43,3.06,2.85,4.5,4.37.08,1.19.62,1.79,1.88,1.47C286.44,357.76,288,358.72,288.48,360.75Z" transform="translate(-210.66 -274.06)"/><path class="cls-34" d="M281.45,315.5c-.26-3.45.81-5.62,3.48-7,1.06,2.77,2.12,5.53,3.16,8.3.36,1,.68,1.7,2,1.7s2.17,1.31,3.13,2.16a25.72,25.72,0,0,1,3.94,4.69c.69,1,.58,1.48-.53,1.88-.75.27-1.46.67-2.19,1a1.67,1.67,0,0,1-.8-.44c-3.41-3.54-7.23-6.63-10.79-10A3.87,3.87,0,0,1,281.45,315.5Z" transform="translate(-210.66 -274.06)"/><path class="cls-35" d="M288.4,342.79a4,4,0,0,0,2.13,3.49,27.4,27.4,0,0,0,6.94,3.17c1.09.35,1.18.76.68,1.71-1.77,3.35-1.74,3.37-5.22,2a4.12,4.12,0,0,1-3.09-1.43c-3.14-3.28-6.59-6.24-9.79-9.46a3.06,3.06,0,0,1-.49-1c.44-1.59,1.59-2,2.88-1,.8.64,1.44.84,2.23.12C286,341,286.79,342.59,288.4,342.79Z" transform="translate(-210.66 -274.06)"/><path class="cls-36" d="M281.45,315.5c2.15,2.9,5.11,5,7.71,7.4a53.83,53.83,0,0,1,5.32,5.36l-2.73,1.8c-1.29.47-1.93-.59-2.66-1.23-1.59-1.4-3.15-2.84-4.64-4.33-2.82-2.81-6-5.26-8.67-8.2-.46-.5-1.29-.93-.77-1.86a7.4,7.4,0,0,1,2.14-.54c1.28-.2,2.22-.18,2,1.57a1.21,1.21,0,0,0,1.15,1.42C281.17,316.93,281.37,316.21,281.45,315.5Z" transform="translate(-210.66 -274.06)"/><path class="cls-37" d="M267.17,347.69q7.79,7.1,15.54,14.22a2.06,2.06,0,0,0,1.64.69,12.91,12.91,0,0,1-4.85,1.15c-1.32-1.2-2.58-2.46-4-3.59-.55-.46-1.38-1-.91-2,.72-.66.27-1.25-.17-1.76a1.24,1.24,0,0,0-1.49-.22,8,8,0,0,1-3.2.73,39.82,39.82,0,0,1-4.58-4.12c-.47-.53-1.21-1-.69-1.91C265.52,350,265.84,348.4,267.17,347.69Z" transform="translate(-210.66 -274.06)"/><path class="cls-38" d="M290.28,333.79c.7,1.16,1.88,1.38,3.07,1.6.31.14.7.07,1,.34.61.69,1.26,1.35,1.88,2,.43.49,1,1,.49,1.75a5.09,5.09,0,0,1-5.25-1.85c-2.82-3.21-6.24-5.81-9.25-8.84a6.72,6.72,0,0,1-1.57-2,2.42,2.42,0,0,0-1.81-1.39c-1.8-.6-3.59-1.2-5.4-1.76-2.45-.8-3-1.33-2.92-3,.05-.36.29-.85.14-1.05-1.27-1.63,0-2.45,1-3.37a6.8,6.8,0,0,1,2.34,1.5c-.08.93-.08,1.74,1.24,1.74s1.82,1.41,2.9,1.88c2.47,3.06,5.69,5.33,8.49,8,1.1,1.08,2.22,2.16,3.39,3.17C290.26,332.93,290,333.41,290.28,333.79Z" transform="translate(-210.66 -274.06)"/><path class="cls-39" d="M289.92,332.68c-2-1.11-3.45-2.92-5.13-4.43q-2.91-2.6-5.78-5.23a2.3,2.3,0,0,1-1.05-1.68c0-2.14-.6-2.88-2.72-3.17-.49-.06-1,0-1.37-.45a2.86,2.86,0,0,1-2.23-1.5,5.5,5.5,0,0,1,3.37-1.78,10.64,10.64,0,0,0,3.24,3.74c3.7,3.22,7.21,6.65,10.77,10a7.08,7.08,0,0,0,2.73,1.86L290.28,332C290.07,332.14,290.25,332.54,289.92,332.68Z" transform="translate(-210.66 -274.06)"/><path class="cls-40" d="M270.49,320.64c.32,1.66,1.67,2.14,3,2.61-.3.45-.84.79-.59,1.46a7.71,7.71,0,0,1-.14,1,1.24,1.24,0,0,0,.79,1.33c1.78.85,3.26,2.21,5.12,2.89.17.67.91,1.21.43,2a9,9,0,0,1-8.19-2.83,5.83,5.83,0,0,0-2-1.56,4.18,4.18,0,0,1-2.45-3.28c-.41-2.13.54-3.28,2.72-3.43C269.64,320.79,270.06,320.7,270.49,320.64Z" transform="translate(-210.66 -274.06)"/><path class="cls-41" d="M279.56,341.3c3.5,3.33,7,6.64,10.5,10a6.43,6.43,0,0,0,2.87,1.84c-1.6,0-3.23-.15-4.18,1.56-1.87-.24-2.81-1.71-3.92-3a12.16,12.16,0,0,0-4.19-6.19C279.14,344.43,280.07,342.68,279.56,341.3Z" transform="translate(-210.66 -274.06)"/><path class="cls-42" d="M282.84,355.49c-.86,0-1.25-.74-1.77-1.24a95.28,95.28,0,0,0-8.23-7.18c-.47-.35-1.33-.65-.85-1.58C279.06,344.34,283.81,350.7,282.84,355.49Z" transform="translate(-210.66 -274.06)"/><path class="cls-40" d="M288.4,342.79c-2.1.58-2.67-1.28-3.73-2.36-.35-2.44-2.51-3.42-5.52-2.5-1.51.21-2.2-.4-1.93-1.95a6.62,6.62,0,0,1,9,1.35c.92,1,1.67,1.49,2.62.15.83.76,1.77,1.43,1.91,2.68C289.7,340.82,288.57,341.38,288.4,342.79Z" transform="translate(-210.66 -274.06)"/><path class="cls-43" d="M290.72,340.16c-.59-.93-1.72-1.47-1.91-2.68C288,335.15,286,334,284,333a41.79,41.79,0,0,1-5.5-4.69c-.56-.52-1.22-1.12-.84-2.08,1.18-.32,2.23.33,3.35.45a32.91,32.91,0,0,0,5.29,5.39,66.23,66.23,0,0,1,5.72,5.51,4.74,4.74,0,0,0,4.71,1.78c.94-.45,1.89-.92,2.6.36C296.43,339.7,293.55,339.46,290.72,340.16Z" transform="translate(-210.66 -274.06)"/><path class="cls-44" d="M296,341.7h.93c4.19.16,4.89,1.42,3,5.26-.27.54-.52.76-1.13.55a35,35,0,0,1-6.64-2.9c-.7-.42-1.38-1.09-1.22-1.87s1.1-.64,1.76-.77A13.62,13.62,0,0,1,296,341.7Z" transform="translate(-210.66 -274.06)"/><path class="cls-45" d="M264.5,350.92c.72,1.9,2.38,2.95,3.81,4.2.6.53,1.35.91,1.46,1.83a9,9,0,0,1-6.15-.73c-4.2-2-4.61-2.6-2.88-7.11.95-.49,1.42.19,1.93.77C263.06,350.62,263.54,351.18,264.5,350.92Z" transform="translate(-210.66 -274.06)"/><path class="cls-46" d="M267.15,362.53c-8-2.88-13-8.63-15.6-16.65-.17-.53-.28-1.07-.42-1.61,1-.6,1.47.39,2.14.75,1,3.36,2.17,6.68,4.46,9.47a14.59,14.59,0,0,0,7.56,4.71C266.12,360.19,267.82,360.7,267.15,362.53Z" transform="translate(-210.66 -274.06)"/><path class="cls-47" d="M274.63,358.2c.37,1.2,1.39,1.81,2.28,2.56s2.22,1.56,2.59,3c-1.47.56-3,.29-4.51.28a19.33,19.33,0,0,1-3.64-3.18c-.4-.43-1-.89-.46-1.61Z" transform="translate(-210.66 -274.06)"/><path class="cls-48" d="M270.89,359.24c.4,1.48,1.68,2.23,2.72,3.14A5.18,5.18,0,0,1,275,364a19.54,19.54,0,0,1-7.84-1.5c.09-1.51-1.65-2-1.86-3.33l1.14.12a12.34,12.34,0,0,0,3.69,0Z" transform="translate(-210.66 -274.06)"/><path class="cls-49" d="M299.3,339.72c-.8-.62-1.75-.15-2.6-.36-.3-1.63-2.35-2-2.62-3.67,1.08-.5,2.25,0,3.34-.31l.55-.1c3.16-.52,3.1-.51,3.23,2.84C301.27,339.66,300.75,340.16,299.3,339.72Z" transform="translate(-210.66 -274.06)"/><path class="cls-50" d="M284.83,351.77l3.92,3c-.85,2,.2,3.54,1.45,5a3.4,3.4,0,0,1-1.72,1c-1-1.54-2.55-2.49-3.76-3.79C285.53,355.25,285.05,353.51,284.83,351.77Z" transform="translate(-210.66 -274.06)"/><path class="cls-51" d="M295.61,333.12c-.87-.15-2.46.45-2.75-.47s1.3-1.39,2.11-2a10.78,10.78,0,0,1,1.43-.85c2.65-1.45,3.48-1,3.86,2.1.08.63-.15.7-.64.82A19.68,19.68,0,0,1,295.61,333.12Z" transform="translate(-210.66 -274.06)"/><path class="cls-52" d="M262.27,345.74a16.36,16.36,0,0,1,4.41-6.52c.33-.3.72-.83,1.24-.25a.81.81,0,0,1,.07,1.18c-1.91,1.9-2.2,4.7-3.84,6.74C263.07,347.25,262.45,346.86,262.27,345.74Z" transform="translate(-210.66 -274.06)"/><path class="cls-53" d="M253.27,345l-2.14-.75a24.32,24.32,0,0,1-.12-9,2.81,2.81,0,0,1,1.87-.71A26.9,26.9,0,0,0,253.27,345Z" transform="translate(-210.66 -274.06)"/><path class="cls-54" d="M277.65,326.24c.54,1.77,2.09,2.66,3.35,3.78a23.89,23.89,0,0,1,3,3,2.9,2.9,0,0,1-2-.71c-.87-1.05-1.92-.19-2.87-.37.08-.68-.92-1.14-.4-1.91-1.69-2.06-4.23-2.92-6.32-4.4a.77.77,0,0,1,.44-.81C274.62,324.67,276.39,324.61,277.65,326.24Z" transform="translate(-210.66 -274.06)"/><path class="cls-55" d="M252.94,328.57c.78-2.63,2.57-4.63,4.27-6.66.37-.44.87-1.15,1.53-.6s.33,1.24-.13,1.82a27.71,27.71,0,0,0-4.22,6.54C253.53,329.8,252.9,329.63,252.94,328.57Z" transform="translate(-210.66 -274.06)"/><path class="cls-56" d="M277.22,336a2.28,2.28,0,0,0,1.93,1.95,11.32,11.32,0,0,0-2.61,2.56,1.42,1.42,0,0,1-2.2.53c-1-.68-.31-1.22.13-1.94C275.22,337.87,275.84,336.61,277.22,336Z" transform="translate(-210.66 -274.06)"/><path class="cls-57" d="M252.94,328.57c.26.66.92.79,1.45,1.1q-.75,2.44-1.51,4.89a1.68,1.68,0,0,1-1.87.71A15.9,15.9,0,0,1,252.94,328.57Z" transform="translate(-210.66 -274.06)"/><path class="cls-58" d="M262.27,345.74a3.4,3.4,0,0,0,1.88,1.15c-.14,1.17-1.3,1.84-1.48,3l-1.93-.77A7.2,7.2,0,0,1,262.27,345.74Z" transform="translate(-210.66 -274.06)"/><path class="cls-59" d="M294.11,356.14c-.44.9-1.05,1.75-1.82,1.84s-1.43-.83-1.59-1.7.43-1.14,1.13-1.09A3.81,3.81,0,0,1,294.11,356.14Z" transform="translate(-210.66 -274.06)"/><path class="cls-43" d="M297.42,335.38c-1.06.62-2.23.13-3.34.31l-.73-.3Z" transform="translate(-210.66 -274.06)"/><path class="cls-46" d="M270.12,359.3a5,5,0,0,1-3.69,0Z" transform="translate(-210.66 -274.06)"/><path class="cls-43" d="M289.92,332.68l.36-.73v1.84C289.89,333.51,290,333.06,289.92,332.68Z" transform="translate(-210.66 -274.06)"/><path class="cls-60" d="M277.65,326.24c-1.48-.91-3.23-.87-4.81-1.44-.28-.35-1-.51-.66-1.17s.86-.34,1.33-.38c2.07.66,4.14,1.31,6.2,2,.7.22,1.52.37,1.27,1.45C279.75,327.43,278.77,326.3,277.65,326.24Z" transform="translate(-210.66 -274.06)"/><path class="cls-61" d="M273.87,317.72c1.49,0,3.08-.31,4.14,1.23.58.85.84,1.62-.05,2.39a1.24,1.24,0,0,1-1.42-.62c-.4-.8-1-.86-1.81-.87C273.22,319.83,273,319.1,273.87,317.72Z" transform="translate(-210.66 -274.06)"/><path class="cls-61" d="M272.4,325.61c2.44.38,4.14,2.11,6.1,3.36.36.23.26.67.22,1a1.58,1.58,0,0,1-1.4-.12c-1.45-.9-2.9-1.8-4.37-2.67C272.28,326.82,271.9,326.38,272.4,325.61Z" transform="translate(-210.66 -274.06)"/></svg>