<svg height="512pt" viewBox="0 0 512 512" width="512pt" xmlns="http://www.w3.org/2000/svg"><path d="m299.886719 94.648438c-71.039063 19.277343-123.296875 84.207031-123.296875 161.351562s52.253906 142.074219 123.296875 161.351562c71.042969-19.277343 123.296875-84.207031 123.296875-161.351562s-52.253906-142.074219-123.296875-161.351562zm0 0" fill="#ffd41d"/><path d="m256 433.632812c-97.945312 0-177.632812-79.6875-177.632812-177.632812s79.6875-177.632812 177.632812-177.632812 177.632812 79.6875 177.632812 177.632812-79.6875 177.632812-177.632812 177.632812zm0-334.367187c-86.421875 0-156.734375 70.3125-156.734375 156.734375s70.3125 156.734375 156.734375 156.734375 156.734375-70.3125 156.734375-156.734375-70.3125-156.734375-156.734375-156.734375zm0 0"/><path d="m59.546875 266.449219h-49.097656c-5.769531 0-10.449219-4.679688-10.449219-10.449219s4.679688-10.449219 10.449219-10.449219h49.097656c5.773437 0 10.449219 4.679688 10.449219 10.449219s-4.675782 10.449219-10.449219 10.449219zm0 0"/><path d="m501.550781 266.449219h-49.097656c-5.773437 0-10.449219-4.679688-10.449219-10.449219s4.675782-10.449219 10.449219-10.449219h49.097656c5.769531 0 10.449219 4.679688 10.449219 10.449219s-4.679688 10.449219-10.449219 10.449219zm0 0"/><path d="m256 69.996094c-5.769531 0-10.449219-4.675782-10.449219-10.449219v-49.097656c0-5.769531 4.679688-10.449219 10.449219-10.449219s10.449219 4.679688 10.449219 10.449219v49.097656c0 5.773437-4.679688 10.449219-10.449219 10.449219zm0 0"/><path d="m256 512c-5.769531 0-10.449219-4.679688-10.449219-10.449219v-49.097656c0-5.773437 4.679688-10.449219 10.449219-10.449219s10.449219 4.675782 10.449219 10.449219v49.097656c0 5.769531-4.679688 10.449219-10.449219 10.449219zm0 0"/><path d="m43.355469 389.230469c-3.609375 0-7.121094-1.875-9.058594-5.226563-2.886719-5-1.171875-11.390625 3.824219-14.273437l42.523437-24.550781c4.996094-2.886719 11.386719-1.175782 14.273438 3.824218 2.882812 4.996094 1.171875 11.386719-3.824219 14.273438l-42.523438 24.550781c-1.644531.949219-3.441406 1.402344-5.214843 1.402344zm0 0"/><path d="m426.140625 168.226562c-3.609375 0-7.121094-1.875-9.058594-5.226562-2.886719-4.996094-1.171875-11.386719 3.824219-14.273438l42.523438-24.546874c5-2.886719 11.386718-1.175782 14.273437 3.824218 2.882813 4.996094 1.171875 11.386719-3.828125 14.273438l-42.519531 24.546875c-1.644531.949219-3.441407 1.402343-5.214844 1.402343zm0 0"/><path d="m157.785156 96.320312c-3.613281 0-7.125-1.875-9.058594-5.226562l-24.550781-42.523438c-2.886719-4.996093-1.171875-11.386718 3.824219-14.273437 5-2.882813 11.386719-1.171875 14.273438 3.828125l24.550781 42.519531c2.886719 4.996094 1.171875 11.386719-3.824219 14.273438-1.644531.949219-3.441406 1.402343-5.214844 1.402343zm0 0"/><path d="m378.785156 479.105469c-3.613281 0-7.125-1.875-9.0625-5.226563l-24.546875-42.523437c-2.886719-4.996094-1.171875-11.386719 3.824219-14.273438 5-2.882812 11.386719-1.167969 14.273438 3.824219l24.546874 42.523438c2.886719 4.996093 1.175782 11.386718-3.824218 14.273437-1.644532.949219-3.441406 1.402344-5.210938 1.402344zm0 0"/><path d="m133.21875 479.105469c-1.773438 0-3.570312-.453125-5.214844-1.402344-5-2.882813-6.710937-9.273437-3.824218-14.273437l24.546874-42.523438c2.886719-4.996094 9.277344-6.707031 14.273438-3.824219 4.996094 2.886719 6.710938 9.277344 3.824219 14.273438l-24.546875 42.523437c-1.9375 3.351563-5.449219 5.226563-9.058594 5.226563zm0 0"/><path d="m354.214844 96.320312c-1.769532 0-3.566406-.453124-5.210938-1.402343-5-2.886719-6.710937-9.277344-3.824218-14.273438l24.550781-42.519531c2.882812-5 9.273437-6.710938 14.273437-3.828125 4.996094 2.886719 6.707032 9.277344 3.824219 14.273437l-24.550781 42.523438c-1.9375 3.351562-5.449219 5.226562-9.0625 5.226562zm0 0"/><path d="m85.859375 168.222656c-1.773437 0-3.570313-.449218-5.214844-1.398437l-42.523437-24.550781c-4.996094-2.886719-6.710938-9.277344-3.824219-14.273438 2.886719-5 9.277344-6.710938 14.273437-3.824219l42.523438 24.550781c4.996094 2.886719 6.707031 9.273438 3.824219 14.273438-1.9375 3.351562-5.449219 5.222656-9.058594 5.222656zm0 0"/><path d="m468.644531 389.230469c-1.773437 0-3.570312-.453125-5.214843-1.402344l-42.523438-24.550781c-4.996094-2.886719-6.707031-9.277344-3.824219-14.273438 2.886719-5 9.273438-6.710937 14.273438-3.824218l42.523437 24.550781c4.996094 2.882812 6.710938 9.273437 3.824219 14.273437-1.9375 3.351563-5.449219 5.226563-9.058594 5.226563zm0 0"/><path d="m256 388.703125c-53.566406 0-101.601562-31.910156-122.371094-81.292969-2.238281-5.320312.261719-11.445312 5.582032-13.683594 5.316406-2.234374 11.445312.261719 13.683593 5.582032 17.496094 41.609375 57.972657 68.496094 103.105469 68.496094 5.769531 0 10.449219 4.679687 10.449219 10.449218 0 5.769532-4.679688 10.449219-10.449219 10.449219zm0 0"/><path d="m134.609375 281.164062c-5.214844 0-9.726563-3.898437-10.363281-9.207031-.214844-1.792969-.394532-3.613281-.535156-5.410156-.453126-5.753906 3.84375-10.785156 9.597656-11.238281 5.761718-.453125 10.78125 3.84375 11.234375 9.597656.121093 1.515625.273437 3.054688.457031 4.566406.683594 5.730469-3.402344 10.929688-9.132812 11.617188-.421876.050781-.84375.074218-1.257813.074218zm0 0"/></svg>